<svg xmlns="http://www.w3.org/2000/svg" viewBox="0 0 351 388.13"><title>silouhette_homme</title><g id="Layer_2" data-name="Layer 2"><g id="Layer_1-2" data-name="Layer 1"><path d="M280.7,261c-48.35-17.44-63.8-32.15-63.8-63.64a22.42,22.42,0,0,1,1.35-8.28c3.8-9.73,14.6-10.81,19.89-39.07,2.69-14.36,15.73-.23,18.22-33,0-13.07-7.12-16.32-7.12-16.32s3.62-19.33,5-34.21C256,47.91,243.45,0,176.35,0l-.85,0-.85,0C107.55,0,95,47.91,96.73,66.45c1.41,14.88,5,34.21,5,34.21s-7.12,3.25-7.12,16.32c2.5,32.78,15.54,18.65,18.23,33,5.29,28.26,16.09,29.34,19.88,39.07a22.42,22.42,0,0,1,1.35,8.28c0,31.49-15.44,46.2-63.79,63.64C21.81,278.46,0,296.3,0,308.46v79.67H351V308.46c0-12.16-21.81-30-70.3-47.48Z"/></g></g></svg>