<?xml version="1.0" encoding="utf-8"?>
<!-- Generator: Adobe Illustrator 24.0.2, SVG Export Plug-In . SVG Version: 6.00 Build 0)  -->
<svg version="1.1" id="Layer_1" xmlns="http://www.w3.org/2000/svg" xmlns:xlink="http://www.w3.org/1999/xlink" x="0px" y="0px"
	 viewBox="0 0 351 388.1" style="enable-background:new 0 0 351 388.1;" xml:space="preserve">
<style type="text/css">
	.st0{fill:#F3C5AB;}
</style>
<title>silouhette_homme</title>
<g id="Layer_2_1_">
	<g id="Layer_1-2">
		<path class="st0" d="M280.7,261c-48.4-17.4-63.8-32.1-63.8-63.6c-0.1-2.8,0.4-5.6,1.4-8.3c3.8-9.7,14.6-10.8,19.9-39.1
			c2.7-14.4,15.7-0.2,18.2-33c0-13.1-7.1-16.3-7.1-16.3s3.6-19.3,5-34.2C256,47.9,243.4,0,176.4,0h-0.9h-0.9
			C107.6,0,95,47.9,96.7,66.4c1.4,14.9,5,34.2,5,34.2s-7.1,3.3-7.1,16.3c2.5,32.8,15.5,18.6,18.2,33c5.3,28.3,16.1,29.3,19.9,39.1
			c1,2.7,1.4,5.5,1.4,8.3c0,31.5-15.4,46.2-63.8,63.6C21.8,278.5,0,296.3,0,308.5v79.7h351v-79.7C351,296.3,329.2,278.5,280.7,261
			L280.7,261z"/>
	</g>
</g>
</svg>
